<?xml version="1.0" encoding="utf-8" standalone="no"?>
<!DOCTYPE svg PUBLIC "-//W3C//DTD SVG 1.1//EN"
  "http://www.w3.org/Graphics/SVG/1.1/DTD/svg11.dtd">
<svg xmlns:xlink="http://www.w3.org/1999/xlink" width="576pt" height="396pt" viewBox="0 0 576 396" xmlns="http://www.w3.org/2000/svg" version="1.1">
 <metadata>
  <rdf:RDF xmlns:dc="http://purl.org/dc/elements/1.1/" xmlns:cc="http://creativecommons.org/ns#" xmlns:rdf="http://www.w3.org/1999/02/22-rdf-syntax-ns#">
   <cc:Work>
    <dc:type rdf:resource="http://purl.org/dc/dcmitype/StillImage"/>
    <dc:date>2022-09-21T14:47:38.178447</dc:date>
    <dc:format>image/svg+xml</dc:format>
    <dc:creator>
     <cc:Agent>
      <dc:title>Matplotlib v3.5.3, https://matplotlib.org/</dc:title>
     </cc:Agent>
    </dc:creator>
   </cc:Work>
  </rdf:RDF>
 </metadata>
 <defs>
  <style type="text/css">*{stroke-linejoin: round; stroke-linecap: butt}</style>
 </defs>
 <g id="figure_1">
  <g id="patch_1">
   <path d="M 0 396 
L 576 396 
L 576 0 
L 0 0 
z
" style="fill: #ffffff"/>
  </g>
  <g id="axes_1">
   <g id="patch_2">
    <path d="M 72 346.5 
L 518.4 346.5 
L 518.4 47.52 
L 72 47.52 
z
" style="fill: #ffffff"/>
   </g>
   <g id="matplotlib.axis_1">
    <g id="xtick_1">
     <g id="line2d_1">
      <path d="M 123.507692 346.5 
L 123.507692 47.52 
" clip-path="url(#p258dd13425)" style="fill: none; stroke: #cccccc; stroke-linecap: round"/>
     </g>
     <g id="line2d_2"/>
     <g id="text_1">
      <!-- -2 -->
      <g style="fill: #262626" transform="translate(119.06238 360.657812)scale(0.1 -0.1)">
       <defs>
        <path id="ArialMT-2d" d="M 203 1375 
L 203 1941 
L 1931 1941 
L 1931 1375 
L 203 1375 
z
" transform="scale(0.015625)"/>
        <path id="ArialMT-32" d="M 3222 541 
L 3222 0 
L 194 0 
Q 188 203 259 391 
Q 375 700 629 1000 
Q 884 1300 1366 1694 
Q 2113 2306 2375 2664 
Q 2638 3022 2638 3341 
Q 2638 3675 2398 3904 
Q 2159 4134 1775 4134 
Q 1369 4134 1125 3890 
Q 881 3647 878 3216 
L 300 3275 
Q 359 3922 746 4261 
Q 1134 4600 1788 4600 
Q 2447 4600 2831 4234 
Q 3216 3869 3216 3328 
Q 3216 3053 3103 2787 
Q 2991 2522 2730 2228 
Q 2469 1934 1863 1422 
Q 1356 997 1212 845 
Q 1069 694 975 541 
L 3222 541 
z
" transform="scale(0.015625)"/>
       </defs>
       <use xlink:href="#ArialMT-2d"/>
       <use xlink:href="#ArialMT-32" x="33.300781"/>
      </g>
     </g>
    </g>
    <g id="xtick_2">
     <g id="line2d_3">
      <path d="M 185.941259 346.5 
L 185.941259 47.52 
" clip-path="url(#p258dd13425)" style="fill: none; stroke: #cccccc; stroke-linecap: round"/>
     </g>
     <g id="line2d_4"/>
     <g id="text_2">
      <!-- 0 -->
      <g style="fill: #262626" transform="translate(183.16079 360.657812)scale(0.1 -0.1)">
       <defs>
        <path id="ArialMT-30" d="M 266 2259 
Q 266 3072 433 3567 
Q 600 4063 929 4331 
Q 1259 4600 1759 4600 
Q 2128 4600 2406 4451 
Q 2684 4303 2865 4023 
Q 3047 3744 3150 3342 
Q 3253 2941 3253 2259 
Q 3253 1453 3087 958 
Q 2922 463 2592 192 
Q 2263 -78 1759 -78 
Q 1097 -78 719 397 
Q 266 969 266 2259 
z
M 844 2259 
Q 844 1131 1108 757 
Q 1372 384 1759 384 
Q 2147 384 2411 759 
Q 2675 1134 2675 2259 
Q 2675 3391 2411 3762 
Q 2147 4134 1753 4134 
Q 1366 4134 1134 3806 
Q 844 3388 844 2259 
z
" transform="scale(0.015625)"/>
       </defs>
       <use xlink:href="#ArialMT-30"/>
      </g>
     </g>
    </g>
    <g id="xtick_3">
     <g id="line2d_5">
      <path d="M 248.374825 346.5 
L 248.374825 47.52 
" clip-path="url(#p258dd13425)" style="fill: none; stroke: #cccccc; stroke-linecap: round"/>
     </g>
     <g id="line2d_6"/>
     <g id="text_3">
      <!-- 2 -->
      <g style="fill: #262626" transform="translate(245.594356 360.657812)scale(0.1 -0.1)">
       <use xlink:href="#ArialMT-32"/>
      </g>
     </g>
    </g>
    <g id="xtick_4">
     <g id="line2d_7">
      <path d="M 310.808392 346.5 
L 310.808392 47.52 
" clip-path="url(#p258dd13425)" style="fill: none; stroke: #cccccc; stroke-linecap: round"/>
     </g>
     <g id="line2d_8"/>
     <g id="text_4">
      <!-- 4 -->
      <g style="fill: #262626" transform="translate(308.027923 360.657812)scale(0.1 -0.1)">
       <defs>
        <path id="ArialMT-34" d="M 2069 0 
L 2069 1097 
L 81 1097 
L 81 1613 
L 2172 4581 
L 2631 4581 
L 2631 1613 
L 3250 1613 
L 3250 1097 
L 2631 1097 
L 2631 0 
L 2069 0 
z
M 2069 1613 
L 2069 3678 
L 634 1613 
L 2069 1613 
z
" transform="scale(0.015625)"/>
       </defs>
       <use xlink:href="#ArialMT-34"/>
      </g>
     </g>
    </g>
    <g id="xtick_5">
     <g id="line2d_9">
      <path d="M 373.241958 346.5 
L 373.241958 47.52 
" clip-path="url(#p258dd13425)" style="fill: none; stroke: #cccccc; stroke-linecap: round"/>
     </g>
     <g id="line2d_10"/>
     <g id="text_5">
      <!-- 6 -->
      <g style="fill: #262626" transform="translate(370.461489 360.657812)scale(0.1 -0.1)">
       <defs>
        <path id="ArialMT-36" d="M 3184 3459 
L 2625 3416 
Q 2550 3747 2413 3897 
Q 2184 4138 1850 4138 
Q 1581 4138 1378 3988 
Q 1113 3794 959 3422 
Q 806 3050 800 2363 
Q 1003 2672 1297 2822 
Q 1591 2972 1913 2972 
Q 2475 2972 2870 2558 
Q 3266 2144 3266 1488 
Q 3266 1056 3080 686 
Q 2894 316 2569 119 
Q 2244 -78 1831 -78 
Q 1128 -78 684 439 
Q 241 956 241 2144 
Q 241 3472 731 4075 
Q 1159 4600 1884 4600 
Q 2425 4600 2770 4297 
Q 3116 3994 3184 3459 
z
M 888 1484 
Q 888 1194 1011 928 
Q 1134 663 1356 523 
Q 1578 384 1822 384 
Q 2178 384 2434 671 
Q 2691 959 2691 1453 
Q 2691 1928 2437 2201 
Q 2184 2475 1800 2475 
Q 1419 2475 1153 2201 
Q 888 1928 888 1484 
z
" transform="scale(0.015625)"/>
       </defs>
       <use xlink:href="#ArialMT-36"/>
      </g>
     </g>
    </g>
    <g id="xtick_6">
     <g id="line2d_11">
      <path d="M 435.675524 346.5 
L 435.675524 47.52 
" clip-path="url(#p258dd13425)" style="fill: none; stroke: #cccccc; stroke-linecap: round"/>
     </g>
     <g id="line2d_12"/>
     <g id="text_6">
      <!-- 8 -->
      <g style="fill: #262626" transform="translate(432.895056 360.657812)scale(0.1 -0.1)">
       <defs>
        <path id="ArialMT-38" d="M 1131 2484 
Q 781 2613 612 2850 
Q 444 3088 444 3419 
Q 444 3919 803 4259 
Q 1163 4600 1759 4600 
Q 2359 4600 2725 4251 
Q 3091 3903 3091 3403 
Q 3091 3084 2923 2848 
Q 2756 2613 2416 2484 
Q 2838 2347 3058 2040 
Q 3278 1734 3278 1309 
Q 3278 722 2862 322 
Q 2447 -78 1769 -78 
Q 1091 -78 675 323 
Q 259 725 259 1325 
Q 259 1772 486 2073 
Q 713 2375 1131 2484 
z
M 1019 3438 
Q 1019 3113 1228 2906 
Q 1438 2700 1772 2700 
Q 2097 2700 2305 2904 
Q 2513 3109 2513 3406 
Q 2513 3716 2298 3927 
Q 2084 4138 1766 4138 
Q 1444 4138 1231 3931 
Q 1019 3725 1019 3438 
z
M 838 1322 
Q 838 1081 952 856 
Q 1066 631 1291 507 
Q 1516 384 1775 384 
Q 2178 384 2440 643 
Q 2703 903 2703 1303 
Q 2703 1709 2433 1975 
Q 2163 2241 1756 2241 
Q 1359 2241 1098 1978 
Q 838 1716 838 1322 
z
" transform="scale(0.015625)"/>
       </defs>
       <use xlink:href="#ArialMT-38"/>
      </g>
     </g>
    </g>
    <g id="xtick_7">
     <g id="line2d_13">
      <path d="M 498.109091 346.5 
L 498.109091 47.52 
" clip-path="url(#p258dd13425)" style="fill: none; stroke: #cccccc; stroke-linecap: round"/>
     </g>
     <g id="line2d_14"/>
     <g id="text_7">
      <!-- 10 -->
      <g style="fill: #262626" transform="translate(492.548153 360.657812)scale(0.1 -0.1)">
       <defs>
        <path id="ArialMT-31" d="M 2384 0 
L 1822 0 
L 1822 3584 
Q 1619 3391 1289 3197 
Q 959 3003 697 2906 
L 697 3450 
Q 1169 3672 1522 3987 
Q 1875 4303 2022 4600 
L 2384 4600 
L 2384 0 
z
" transform="scale(0.015625)"/>
       </defs>
       <use xlink:href="#ArialMT-31"/>
       <use xlink:href="#ArialMT-30" x="55.615234"/>
      </g>
     </g>
    </g>
   </g>
   <g id="matplotlib.axis_2">
    <g id="ytick_1">
     <g id="line2d_15">
      <path d="M 72 332.910544 
L 518.4 332.910544 
" clip-path="url(#p258dd13425)" style="fill: none; stroke: #cccccc; stroke-linecap: round"/>
     </g>
     <g id="line2d_16"/>
     <g id="text_8">
      <!-- -0.04 -->
      <g style="fill: #262626" transform="translate(42.209375 336.489451)scale(0.1 -0.1)">
       <defs>
        <path id="ArialMT-2e" d="M 581 0 
L 581 641 
L 1222 641 
L 1222 0 
L 581 0 
z
" transform="scale(0.015625)"/>
       </defs>
       <use xlink:href="#ArialMT-2d"/>
       <use xlink:href="#ArialMT-30" x="33.300781"/>
       <use xlink:href="#ArialMT-2e" x="88.916016"/>
       <use xlink:href="#ArialMT-30" x="116.699219"/>
       <use xlink:href="#ArialMT-34" x="172.314453"/>
      </g>
     </g>
    </g>
    <g id="ytick_2">
     <g id="line2d_17">
      <path d="M 72 298.935469 
L 518.4 298.935469 
" clip-path="url(#p258dd13425)" style="fill: none; stroke: #cccccc; stroke-linecap: round"/>
     </g>
     <g id="line2d_18"/>
     <g id="text_9">
      <!-- -0.03 -->
      <g style="fill: #262626" transform="translate(42.209375 302.514375)scale(0.1 -0.1)">
       <defs>
        <path id="ArialMT-33" d="M 269 1209 
L 831 1284 
Q 928 806 1161 595 
Q 1394 384 1728 384 
Q 2125 384 2398 659 
Q 2672 934 2672 1341 
Q 2672 1728 2419 1979 
Q 2166 2231 1775 2231 
Q 1616 2231 1378 2169 
L 1441 2663 
Q 1497 2656 1531 2656 
Q 1891 2656 2178 2843 
Q 2466 3031 2466 3422 
Q 2466 3731 2256 3934 
Q 2047 4138 1716 4138 
Q 1388 4138 1169 3931 
Q 950 3725 888 3313 
L 325 3413 
Q 428 3978 793 4289 
Q 1159 4600 1703 4600 
Q 2078 4600 2393 4439 
Q 2709 4278 2876 4000 
Q 3044 3722 3044 3409 
Q 3044 3113 2884 2869 
Q 2725 2625 2413 2481 
Q 2819 2388 3044 2092 
Q 3269 1797 3269 1353 
Q 3269 753 2831 336 
Q 2394 -81 1725 -81 
Q 1122 -81 723 278 
Q 325 638 269 1209 
z
" transform="scale(0.015625)"/>
       </defs>
       <use xlink:href="#ArialMT-2d"/>
       <use xlink:href="#ArialMT-30" x="33.300781"/>
       <use xlink:href="#ArialMT-2e" x="88.916016"/>
       <use xlink:href="#ArialMT-30" x="116.699219"/>
       <use xlink:href="#ArialMT-33" x="172.314453"/>
      </g>
     </g>
    </g>
    <g id="ytick_3">
     <g id="line2d_19">
      <path d="M 72 264.960393 
L 518.4 264.960393 
" clip-path="url(#p258dd13425)" style="fill: none; stroke: #cccccc; stroke-linecap: round"/>
     </g>
     <g id="line2d_20"/>
     <g id="text_10">
      <!-- -0.02 -->
      <g style="fill: #262626" transform="translate(42.209375 268.539299)scale(0.1 -0.1)">
       <use xlink:href="#ArialMT-2d"/>
       <use xlink:href="#ArialMT-30" x="33.300781"/>
       <use xlink:href="#ArialMT-2e" x="88.916016"/>
       <use xlink:href="#ArialMT-30" x="116.699219"/>
       <use xlink:href="#ArialMT-32" x="172.314453"/>
      </g>
     </g>
    </g>
    <g id="ytick_4">
     <g id="line2d_21">
      <path d="M 72 230.985318 
L 518.4 230.985318 
" clip-path="url(#p258dd13425)" style="fill: none; stroke: #cccccc; stroke-linecap: round"/>
     </g>
     <g id="line2d_22"/>
     <g id="text_11">
      <!-- -0.01 -->
      <g style="fill: #262626" transform="translate(42.209375 234.564224)scale(0.1 -0.1)">
       <use xlink:href="#ArialMT-2d"/>
       <use xlink:href="#ArialMT-30" x="33.300781"/>
       <use xlink:href="#ArialMT-2e" x="88.916016"/>
       <use xlink:href="#ArialMT-30" x="116.699219"/>
       <use xlink:href="#ArialMT-31" x="172.314453"/>
      </g>
     </g>
    </g>
    <g id="ytick_5">
     <g id="line2d_23">
      <path d="M 72 197.010242 
L 518.4 197.010242 
" clip-path="url(#p258dd13425)" style="fill: none; stroke: #cccccc; stroke-linecap: round"/>
     </g>
     <g id="line2d_24"/>
     <g id="text_12">
      <!-- 0.00 -->
      <g style="fill: #262626" transform="translate(45.539062 200.589148)scale(0.1 -0.1)">
       <use xlink:href="#ArialMT-30"/>
       <use xlink:href="#ArialMT-2e" x="55.615234"/>
       <use xlink:href="#ArialMT-30" x="83.398438"/>
       <use xlink:href="#ArialMT-30" x="139.013672"/>
      </g>
     </g>
    </g>
    <g id="ytick_6">
     <g id="line2d_25">
      <path d="M 72 163.035166 
L 518.4 163.035166 
" clip-path="url(#p258dd13425)" style="fill: none; stroke: #cccccc; stroke-linecap: round"/>
     </g>
     <g id="line2d_26"/>
     <g id="text_13">
      <!-- 0.01 -->
      <g style="fill: #262626" transform="translate(45.539062 166.614073)scale(0.1 -0.1)">
       <use xlink:href="#ArialMT-30"/>
       <use xlink:href="#ArialMT-2e" x="55.615234"/>
       <use xlink:href="#ArialMT-30" x="83.398438"/>
       <use xlink:href="#ArialMT-31" x="139.013672"/>
      </g>
     </g>
    </g>
    <g id="ytick_7">
     <g id="line2d_27">
      <path d="M 72 129.060091 
L 518.4 129.060091 
" clip-path="url(#p258dd13425)" style="fill: none; stroke: #cccccc; stroke-linecap: round"/>
     </g>
     <g id="line2d_28"/>
     <g id="text_14">
      <!-- 0.02 -->
      <g style="fill: #262626" transform="translate(45.539062 132.638997)scale(0.1 -0.1)">
       <use xlink:href="#ArialMT-30"/>
       <use xlink:href="#ArialMT-2e" x="55.615234"/>
       <use xlink:href="#ArialMT-30" x="83.398438"/>
       <use xlink:href="#ArialMT-32" x="139.013672"/>
      </g>
     </g>
    </g>
    <g id="ytick_8">
     <g id="line2d_29">
      <path d="M 72 95.085015 
L 518.4 95.085015 
" clip-path="url(#p258dd13425)" style="fill: none; stroke: #cccccc; stroke-linecap: round"/>
     </g>
     <g id="line2d_30"/>
     <g id="text_15">
      <!-- 0.03 -->
      <g style="fill: #262626" transform="translate(45.539062 98.663921)scale(0.1 -0.1)">
       <use xlink:href="#ArialMT-30"/>
       <use xlink:href="#ArialMT-2e" x="55.615234"/>
       <use xlink:href="#ArialMT-30" x="83.398438"/>
       <use xlink:href="#ArialMT-33" x="139.013672"/>
      </g>
     </g>
    </g>
    <g id="ytick_9">
     <g id="line2d_31">
      <path d="M 72 61.10994 
L 518.4 61.10994 
" clip-path="url(#p258dd13425)" style="fill: none; stroke: #cccccc; stroke-linecap: round"/>
     </g>
     <g id="line2d_32"/>
     <g id="text_16">
      <!-- 0.04 -->
      <g style="fill: #262626" transform="translate(45.539062 64.688846)scale(0.1 -0.1)">
       <use xlink:href="#ArialMT-30"/>
       <use xlink:href="#ArialMT-2e" x="55.615234"/>
       <use xlink:href="#ArialMT-30" x="83.398438"/>
       <use xlink:href="#ArialMT-34" x="139.013672"/>
      </g>
     </g>
    </g>
   </g>
   <g id="line2d_33">
    <path d="M 92.290909 197.010242 
L 99.602948 157.583472 
L 103.665192 136.936616 
L 106.914988 121.54806 
L 109.758559 109.132503 
L 112.195905 99.400305 
L 114.633251 90.607015 
L 116.664373 84.057809 
L 118.695495 78.263293 
L 120.320393 74.197252 
L 121.945291 70.656483 
L 123.570188 67.656131 
L 125.195086 65.209028 
L 126.413759 63.743157 
L 127.632432 62.597953 
L 128.851106 61.776171 
L 130.069779 61.279789 
L 131.288452 61.11 
L 132.507125 61.267214 
L 133.725799 61.751052 
L 134.944472 62.56035 
L 136.163145 63.693161 
L 137.381818 65.146759 
L 138.600491 66.917646 
L 140.225389 69.764917 
L 141.850287 73.156417 
L 143.475184 77.077642 
L 145.100082 81.51182 
L 147.131204 87.746789 
L 149.162326 94.7118 
L 151.599672 103.967622 
L 154.037019 114.11842 
L 156.88059 126.96147 
L 160.130385 142.751544 
L 164.192629 163.759907 
L 169.879771 194.531629 
L 177.598034 236.191548 
L 181.660278 256.853752 
L 184.910074 272.259031 
L 187.753645 284.692225 
L 190.190991 294.44159 
L 192.628337 303.253763 
L 194.659459 309.819888 
L 196.690581 315.632275 
L 198.315479 319.713222 
L 199.940377 323.269365 
L 201.565274 326.285497 
L 203.190172 328.748717 
L 204.408845 330.226856 
L 205.627518 331.38445 
L 206.846192 332.218713 
L 208.064865 332.727638 
L 209.283538 332.91 
L 210.502211 332.765361 
L 211.720885 332.294069 
L 212.939558 331.497257 
L 214.158231 330.376844 
L 215.376904 328.935524 
L 216.595577 327.176766 
L 218.220475 324.345387 
L 219.845373 320.969393 
L 221.47027 317.063225 
L 223.095168 312.643588 
L 225.12629 306.425978 
L 227.157412 299.477307 
L 229.594758 290.239598 
L 232.032105 280.105116 
L 234.875676 267.278623 
L 238.125471 251.503941 
L 242.187715 230.509147 
L 247.874857 199.74523 
L 255.59312 158.074539 
L 259.655364 137.397062 
L 262.90516 121.975112 
L 265.748731 109.524327 
L 268.186077 99.75783 
L 270.623423 90.926804 
L 272.654545 84.343785 
L 274.685667 78.513546 
L 276.310565 74.41771 
L 277.935463 70.846203 
L 279.56036 67.814302 
L 281.185258 65.334973 
L 282.403931 63.844572 
L 283.622604 62.674594 
L 284.841278 61.827853 
L 286.059951 61.306387 
L 287.278624 61.111451 
L 288.497297 61.243515 
L 289.715971 61.702259 
L 290.934644 62.486582 
L 292.153317 63.594594 
L 293.37199 65.02363 
L 294.590663 66.770252 
L 296.215561 69.58573 
L 297.840459 72.946205 
L 299.465356 76.837303 
L 301.090254 81.242383 
L 303.121376 87.442613 
L 305.152498 94.374918 
L 307.589844 103.594482 
L 310.027191 113.712611 
L 312.870762 126.522501 
L 316.120557 142.281735 
L 320.182801 163.262887 
L 325.869943 194.018888 
L 333.588206 235.700202 
L 337.65045 256.392881 
L 340.900246 271.831444 
L 343.743817 284.299778 
L 346.181163 294.083371 
L 348.618509 302.933218 
L 350.649631 309.533109 
L 352.680753 315.381179 
L 354.305651 319.491891 
L 355.930549 323.078747 
L 357.555446 326.126406 
L 359.180344 328.621834 
L 360.399017 330.124493 
L 361.61769 331.306852 
L 362.836364 332.166068 
L 364.055037 332.700073 
L 365.27371 332.907581 
L 366.492383 332.788094 
L 367.711057 332.341898 
L 368.92973 331.570068 
L 370.148403 330.474462 
L 371.367076 329.057714 
L 372.585749 327.323234 
L 374.210647 324.523666 
L 375.835545 321.178722 
L 377.460442 317.302708 
L 379.08534 312.912202 
L 381.116462 306.729374 
L 383.147584 299.813459 
L 385.58493 290.612073 
L 388.022277 280.510333 
L 390.865848 267.717092 
L 394.115643 251.973362 
L 397.771663 233.152959 
L 403.05258 204.698808 
L 411.989517 156.439842 
L 416.051761 135.865581 
L 419.301556 120.555795 
L 422.145127 108.223126 
L 424.582473 98.571492 
L 427.01982 89.86674 
L 429.050942 83.396793 
L 431.082064 77.685953 
L 432.706962 73.689657 
L 434.331859 70.220805 
L 435.956757 67.294233 
L 437.17543 65.462794 
L 438.394103 63.947884 
L 439.612776 62.753147 
L 440.83145 61.88146 
L 442.050123 61.334918 
L 443.268796 61.114838 
L 444.487469 61.221749 
L 445.706143 61.655394 
L 446.924816 62.414728 
L 448.143489 63.497926 
L 449.362162 64.90238 
L 450.580835 66.624712 
L 452.205733 69.408359 
L 453.830631 72.73776 
L 455.455528 76.598676 
L 457.080426 80.974594 
L 459.111548 87.139997 
L 461.14267 94.039498 
L 463.580016 103.222672 
L 466.017363 113.307988 
L 468.860934 126.084535 
L 472.110729 141.812705 
L 475.766749 160.620401 
L 481.047666 189.065678 
L 489.984603 237.33584 
L 494.046847 257.925792 
L 497.296642 273.252557 
L 498.109091 276.890435 
L 498.109091 276.890435 
" clip-path="url(#p258dd13425)" style="fill: none; stroke-dasharray: 6.475,2.8; stroke-dashoffset: 0; stroke: #ff0000; stroke-opacity: 0.5; stroke-width: 1.75"/>
   </g>
   <g id="line2d_34">
    <path d="M 92.290909 197.010242 
L 498.109091 197.010242 
L 498.109091 197.010242 
" clip-path="url(#p258dd13425)" style="fill: none; stroke: #0000ff; stroke-width: 1.75; stroke-linecap: round"/>
   </g>
   <g id="line2d_35">
    <path d="M 185.941259 197.010242 
L 185.941259 61.11 
L 185.941259 332.91 
L 185.941259 276.890435 
" clip-path="url(#p258dd13425)" style="fill: none; stroke: #0000ff; stroke-width: 1.75; stroke-linecap: round"/>
   </g>
   <g id="patch_3">
    <path d="M 72 346.5 
L 72 47.52 
" style="fill: none; stroke: #cccccc; stroke-linejoin: miter; stroke-linecap: square"/>
   </g>
   <g id="patch_4">
    <path d="M 518.4 346.5 
L 518.4 47.52 
" style="fill: none; stroke: #cccccc; stroke-linejoin: miter; stroke-linecap: square"/>
   </g>
   <g id="patch_5">
    <path d="M 72 346.5 
L 518.4 346.5 
" style="fill: none; stroke: #cccccc; stroke-linejoin: miter; stroke-linecap: square"/>
   </g>
   <g id="patch_6">
    <path d="M 72 47.52 
L 518.4 47.52 
" style="fill: none; stroke: #cccccc; stroke-linejoin: miter; stroke-linecap: square"/>
   </g>
  </g>
 </g>
 <defs>
  <clipPath id="p258dd13425">
   <rect x="72" y="47.52" width="446.4" height="298.98"/>
  </clipPath>
 </defs>
</svg>
