<?xml version="1.0" encoding="utf-8" standalone="no"?>
<!DOCTYPE svg PUBLIC "-//W3C//DTD SVG 1.1//EN"
  "http://www.w3.org/Graphics/SVG/1.1/DTD/svg11.dtd">
<svg xmlns:xlink="http://www.w3.org/1999/xlink" width="576pt" height="396pt" viewBox="0 0 576 396" xmlns="http://www.w3.org/2000/svg" version="1.1">
 <metadata>
  <rdf:RDF xmlns:dc="http://purl.org/dc/elements/1.1/" xmlns:cc="http://creativecommons.org/ns#" xmlns:rdf="http://www.w3.org/1999/02/22-rdf-syntax-ns#">
   <cc:Work>
    <dc:type rdf:resource="http://purl.org/dc/dcmitype/StillImage"/>
    <dc:date>2022-09-10T16:29:53.684942</dc:date>
    <dc:format>image/svg+xml</dc:format>
    <dc:creator>
     <cc:Agent>
      <dc:title>Matplotlib v3.5.3, https://matplotlib.org/</dc:title>
     </cc:Agent>
    </dc:creator>
   </cc:Work>
  </rdf:RDF>
 </metadata>
 <defs>
  <style type="text/css">*{stroke-linejoin: round; stroke-linecap: butt}</style>
 </defs>
 <g id="figure_1">
  <g id="patch_1">
   <path d="M 0 396 
L 576 396 
L 576 0 
L 0 0 
z
" style="fill: #ffffff"/>
  </g>
  <g id="axes_1">
   <g id="patch_2">
    <path d="M 72 135.455294 
L 274.909091 135.455294 
L 274.909091 47.52 
L 72 47.52 
z
" style="fill: #eaeaf2"/>
   </g>
   <g id="matplotlib.axis_1">
    <g id="xtick_1">
     <g id="line2d_1">
      <path d="M 81.22314 135.455294 
L 81.22314 47.52 
" clip-path="url(#paaccda7c62)" style="fill: none; stroke: #ffffff; stroke-linecap: round"/>
     </g>
     <g id="line2d_2"/>
     <g id="text_1">
      <!-- $\mathdefault{0}$ -->
      <g style="fill: #262626" transform="translate(78.732473 149.373792)scale(0.1 -0.1)">
       <defs>
        <path id="CMR17-30" d="M 2688 2025 
C 2688 2416 2682 3080 2413 3591 
C 2176 4039 1798 4198 1466 4198 
C 1158 4198 768 4058 525 3597 
C 269 3118 243 2524 243 2025 
C 243 1661 250 1106 448 619 
C 723 -39 1216 -128 1466 -128 
C 1760 -128 2208 -7 2470 600 
C 2662 1042 2688 1559 2688 2025 
z
M 1466 -26 
C 1056 -26 813 325 723 812 
C 653 1188 653 1738 653 2096 
C 653 2588 653 2997 736 3387 
C 858 3929 1216 4096 1466 4096 
C 1728 4096 2067 3923 2189 3400 
C 2272 3036 2278 2607 2278 2096 
C 2278 1680 2278 1169 2202 792 
C 2067 95 1690 -26 1466 -26 
z
" transform="scale(0.015625)"/>
       </defs>
       <use xlink:href="#CMR17-30" transform="scale(0.996264)"/>
      </g>
     </g>
    </g>
    <g id="xtick_2">
     <g id="line2d_3">
      <path d="M 118.115702 135.455294 
L 118.115702 47.52 
" clip-path="url(#paaccda7c62)" style="fill: none; stroke: #ffffff; stroke-linecap: round"/>
     </g>
     <g id="line2d_4"/>
     <g id="text_2">
      <!-- $\mathdefault{2}$ -->
      <g style="fill: #262626" transform="translate(115.625035 149.373792)scale(0.1 -0.1)">
       <defs>
        <path id="CMR17-32" d="M 2669 989 
L 2554 989 
C 2490 536 2438 459 2413 420 
C 2381 369 1920 369 1830 369 
L 602 369 
C 832 619 1280 1072 1824 1597 
C 2214 1967 2669 2402 2669 3035 
C 2669 3790 2067 4224 1395 4224 
C 691 4224 262 3604 262 3030 
C 262 2780 448 2748 525 2748 
C 589 2748 781 2787 781 3010 
C 781 3207 614 3264 525 3264 
C 486 3264 448 3258 422 3245 
C 544 3790 915 4058 1306 4058 
C 1862 4058 2227 3617 2227 3035 
C 2227 2479 1901 2000 1536 1584 
L 262 146 
L 262 0 
L 2515 0 
L 2669 989 
z
" transform="scale(0.015625)"/>
       </defs>
       <use xlink:href="#CMR17-32" transform="scale(0.996264)"/>
      </g>
     </g>
    </g>
    <g id="xtick_3">
     <g id="line2d_5">
      <path d="M 155.008264 135.455294 
L 155.008264 47.52 
" clip-path="url(#paaccda7c62)" style="fill: none; stroke: #ffffff; stroke-linecap: round"/>
     </g>
     <g id="line2d_6"/>
     <g id="text_3">
      <!-- $\mathdefault{4}$ -->
      <g style="fill: #262626" transform="translate(152.517597 149.373792)scale(0.1 -0.1)">
       <defs>
        <path id="CMR17-34" d="M 2150 4122 
C 2150 4256 2144 4256 2029 4256 
L 128 1254 
L 128 1088 
L 1779 1088 
L 1779 457 
C 1779 224 1766 160 1318 160 
L 1197 160 
L 1197 0 
C 1402 0 1747 0 1965 0 
C 2182 0 2528 0 2733 0 
L 2733 160 
L 2611 160 
C 2163 160 2150 224 2150 457 
L 2150 1088 
L 2803 1088 
L 2803 1254 
L 2150 1254 
L 2150 4122 
z
M 1798 3703 
L 1798 1254 
L 256 1254 
L 1798 3703 
z
" transform="scale(0.015625)"/>
       </defs>
       <use xlink:href="#CMR17-34" transform="scale(0.996264)"/>
      </g>
     </g>
    </g>
    <g id="xtick_4">
     <g id="line2d_7">
      <path d="M 191.900826 135.455294 
L 191.900826 47.52 
" clip-path="url(#paaccda7c62)" style="fill: none; stroke: #ffffff; stroke-linecap: round"/>
     </g>
     <g id="line2d_8"/>
     <g id="text_4">
      <!-- $\mathdefault{6}$ -->
      <g style="fill: #262626" transform="translate(189.410159 149.373792)scale(0.1 -0.1)">
       <defs>
        <path id="CMR17-36" d="M 678 2176 
C 678 3690 1395 4032 1811 4032 
C 1946 4032 2272 4009 2400 3776 
C 2298 3776 2106 3776 2106 3553 
C 2106 3381 2246 3323 2336 3323 
C 2394 3323 2566 3348 2566 3560 
C 2566 3954 2246 4179 1805 4179 
C 1043 4179 243 3390 243 1984 
C 243 253 966 -128 1478 -128 
C 2099 -128 2688 427 2688 1283 
C 2688 2081 2170 2662 1517 2662 
C 1126 2662 838 2407 678 1960 
L 678 2176 
z
M 1478 25 
C 691 25 691 1200 691 1436 
C 691 1896 909 2560 1504 2560 
C 1613 2560 1926 2560 2138 2120 
C 2253 1870 2253 1609 2253 1289 
C 2253 944 2253 690 2118 434 
C 1978 171 1773 25 1478 25 
z
" transform="scale(0.015625)"/>
       </defs>
       <use xlink:href="#CMR17-36" transform="scale(0.996264)"/>
      </g>
     </g>
    </g>
    <g id="xtick_5">
     <g id="line2d_9">
      <path d="M 228.793388 135.455294 
L 228.793388 47.52 
" clip-path="url(#paaccda7c62)" style="fill: none; stroke: #ffffff; stroke-linecap: round"/>
     </g>
     <g id="line2d_10"/>
     <g id="text_5">
      <!-- $\mathdefault{8}$ -->
      <g style="fill: #262626" transform="translate(226.302721 149.373792)scale(0.1 -0.1)">
       <defs>
        <path id="CMR17-38" d="M 1741 2264 
C 2144 2467 2554 2773 2554 3263 
C 2554 3841 1990 4179 1472 4179 
C 890 4179 378 3759 378 3180 
C 378 3021 416 2747 666 2505 
C 730 2442 998 2251 1171 2130 
C 883 1983 211 1634 211 934 
C 211 279 838 -128 1459 -128 
C 2144 -128 2720 362 2720 1010 
C 2720 1590 2330 1857 2074 2029 
L 1741 2264 
z
M 902 2822 
C 851 2854 595 3051 595 3351 
C 595 3739 998 4032 1459 4032 
C 1965 4032 2336 3676 2336 3262 
C 2336 2669 1670 2331 1638 2331 
C 1632 2331 1626 2331 1574 2370 
L 902 2822 
z
M 2080 1519 
C 2176 1449 2483 1240 2483 851 
C 2483 381 2010 25 1472 25 
C 890 25 448 438 448 940 
C 448 1443 838 1862 1280 2060 
L 2080 1519 
z
" transform="scale(0.015625)"/>
       </defs>
       <use xlink:href="#CMR17-38" transform="scale(0.996264)"/>
      </g>
     </g>
    </g>
    <g id="xtick_6">
     <g id="line2d_11">
      <path d="M 265.68595 135.455294 
L 265.68595 47.52 
" clip-path="url(#paaccda7c62)" style="fill: none; stroke: #ffffff; stroke-linecap: round"/>
     </g>
     <g id="line2d_12"/>
     <g id="text_6">
      <!-- $\mathdefault{10}$ -->
      <g style="fill: #262626" transform="translate(260.704615 149.373792)scale(0.1 -0.1)">
       <defs>
        <path id="CMR17-31" d="M 1702 4058 
C 1702 4192 1696 4192 1606 4192 
C 1357 3916 979 3827 621 3827 
C 602 3827 570 3827 563 3808 
C 557 3795 557 3782 557 3648 
C 755 3648 1088 3686 1344 3839 
L 1344 461 
C 1344 236 1331 160 781 160 
L 589 160 
L 589 0 
C 896 0 1216 0 1523 0 
C 1830 0 2150 0 2458 0 
L 2458 160 
L 2266 160 
C 1715 160 1702 230 1702 458 
L 1702 4058 
z
" transform="scale(0.015625)"/>
       </defs>
       <use xlink:href="#CMR17-31" transform="scale(0.996264)"/>
       <use xlink:href="#CMR17-30" transform="translate(45.690477 0)scale(0.996264)"/>
      </g>
     </g>
    </g>
   </g>
   <g id="matplotlib.axis_2">
    <g id="ytick_1">
     <g id="line2d_13">
      <path d="M 72 131.469557 
L 274.909091 131.469557 
" clip-path="url(#paaccda7c62)" style="fill: none; stroke: #ffffff; stroke-linecap: round"/>
     </g>
     <g id="line2d_14"/>
     <g id="text_7">
      <!-- $\mathdefault{-0.01}$ -->
      <g style="fill: #262626" transform="translate(39.539842 134.928806)scale(0.1 -0.1)">
       <defs>
        <path id="CMSY10-0" d="M 4218 1472 
C 4326 1472 4442 1472 4442 1600 
C 4442 1728 4326 1728 4218 1728 
L 755 1728 
C 646 1728 531 1728 531 1600 
C 531 1472 646 1472 755 1472 
L 4218 1472 
z
" transform="scale(0.015625)"/>
        <path id="CMMI12-3a" d="M 1178 307 
C 1178 492 1024 619 870 619 
C 685 619 557 466 557 313 
C 557 128 710 0 864 0 
C 1050 0 1178 153 1178 307 
z
" transform="scale(0.015625)"/>
       </defs>
       <use xlink:href="#CMSY10-0" transform="scale(0.996264)"/>
       <use xlink:href="#CMR17-30" transform="translate(77.487468 0)scale(0.996264)"/>
       <use xlink:href="#CMMI12-3a" transform="translate(123.177945 0)scale(0.996264)"/>
       <use xlink:href="#CMR17-30" transform="translate(150.275122 0)scale(0.996264)"/>
       <use xlink:href="#CMR17-31" transform="translate(195.965599 0)scale(0.996264)"/>
      </g>
     </g>
    </g>
    <g id="ytick_2">
     <g id="line2d_15">
      <path d="M 72 91.492679 
L 274.909091 91.492679 
" clip-path="url(#paaccda7c62)" style="fill: none; stroke: #ffffff; stroke-linecap: round"/>
     </g>
     <g id="line2d_16"/>
     <g id="text_8">
      <!-- $\mathdefault{0.00}$ -->
      <g style="fill: #262626" transform="translate(47.288586 94.951928)scale(0.1 -0.1)">
       <use xlink:href="#CMR17-30" transform="scale(0.996264)"/>
       <use xlink:href="#CMMI12-3a" transform="translate(45.690477 0)scale(0.996264)"/>
       <use xlink:href="#CMR17-30" transform="translate(72.787654 0)scale(0.996264)"/>
       <use xlink:href="#CMR17-30" transform="translate(118.478131 0)scale(0.996264)"/>
      </g>
     </g>
    </g>
    <g id="ytick_3">
     <g id="line2d_17">
      <path d="M 72 51.515801 
L 274.909091 51.515801 
" clip-path="url(#paaccda7c62)" style="fill: none; stroke: #ffffff; stroke-linecap: round"/>
     </g>
     <g id="line2d_18"/>
     <g id="text_9">
      <!-- $\mathdefault{0.01}$ -->
      <g style="fill: #262626" transform="translate(47.288586 54.97505)scale(0.1 -0.1)">
       <use xlink:href="#CMR17-30" transform="scale(0.996264)"/>
       <use xlink:href="#CMMI12-3a" transform="translate(45.690477 0)scale(0.996264)"/>
       <use xlink:href="#CMR17-30" transform="translate(72.787654 0)scale(0.996264)"/>
       <use xlink:href="#CMR17-31" transform="translate(118.478131 0)scale(0.996264)"/>
      </g>
     </g>
    </g>
   </g>
   <g id="line2d_19">
    <path d="M 81.22314 119.7606 
L 83.086401 123.111685 
L 84.949662 125.954008 
L 86.812923 128.241836 
L 88.676183 129.938356 
L 90.539444 131.01627 
L 92.402705 131.458235 
L 94.265965 131.25714 
L 96.129226 130.416219 
L 97.992487 128.949004 
L 99.855748 126.879102 
L 101.719008 124.23982 
L 103.582269 121.073624 
L 105.44553 117.43146 
L 107.30879 113.371931 
L 109.172051 108.960356 
L 111.035312 104.26772 
L 112.898573 99.369529 
L 114.761833 94.344597 
L 116.625094 89.273776 
L 118.488355 84.238658 
L 120.351615 79.32026 
L 122.214876 74.59772 
L 124.078137 70.147027 
L 125.941397 66.039793 
L 127.804658 62.342106 
L 129.667919 59.113463 
L 131.53118 56.405813 
L 133.39444 54.262724 
L 135.257701 52.718679 
L 137.120962 51.798522 
L 138.984222 51.517059 
L 140.847483 51.878818 
L 142.710744 52.87798 
L 144.574005 54.498466 
L 146.437265 56.714203 
L 148.300526 59.489539 
L 150.163787 62.779818 
L 152.027047 66.532097 
L 153.890308 70.686001 
L 155.753569 75.174692 
L 157.616829 79.925946 
L 159.48009 84.863313 
L 161.343351 89.907349 
L 163.206612 94.976893 
L 165.069872 99.990376 
L 166.933133 104.867127 
L 168.796394 109.528678 
L 170.659654 113.900023 
L 172.522915 117.910826 
L 174.386176 121.49655 
L 176.249437 124.599502 
L 178.112697 127.169752 
L 179.975958 129.165944 
L 181.839219 130.55596 
L 183.702479 131.317433 
L 185.56574 131.438111 
L 187.429001 130.916051 
L 189.292261 129.759655 
L 191.155522 127.987529 
L 193.018783 125.628187 
L 194.882044 122.719592 
L 196.745304 119.308544 
L 198.608565 115.449929 
L 200.471826 111.205833 
L 202.335086 106.644544 
L 204.198347 101.839456 
L 206.061608 96.867885 
L 207.924869 91.809825 
L 209.788129 86.746661 
L 211.65139 81.759863 
L 213.514651 76.92967 
L 215.377911 72.333801 
L 217.241172 68.046205 
L 219.104433 64.135872 
L 220.967693 60.66572 
L 222.830954 57.691585 
L 224.694215 55.261323 
L 226.557476 53.414037 
L 228.420736 52.17945 
L 230.283997 51.577428 
L 232.147258 51.617657 
L 234.010518 52.299491 
L 235.873779 53.611957 
L 237.73704 55.533938 
L 239.600301 58.034509 
L 241.463561 61.073435 
L 243.326822 64.601817 
L 245.190083 68.562884 
L 247.053343 72.892899 
L 248.916604 77.522192 
L 250.779865 82.376275 
L 252.643125 87.377045 
L 254.506386 92.444037 
L 256.369647 97.495721 
L 258.232908 102.450813 
L 260.096168 107.229586 
L 261.959429 111.755145 
L 263.82269 115.954674 
L 265.68595 119.7606 
" clip-path="url(#paaccda7c62)" style="fill: none; stroke: #4c72b0; stroke-opacity: 0.4; stroke-width: 1.75; stroke-linecap: round"/>
   </g>
   <g id="patch_3">
    <path d="M 72 135.455294 
L 72 47.52 
" style="fill: none"/>
   </g>
   <g id="patch_4">
    <path d="M 274.909091 135.455294 
L 274.909091 47.52 
" style="fill: none"/>
   </g>
   <g id="patch_5">
    <path d="M 72 135.455294 
L 274.909091 135.455294 
" style="fill: none"/>
   </g>
   <g id="patch_6">
    <path d="M 72 47.52 
L 274.909091 47.52 
" style="fill: none"/>
   </g>
   <g id="text_10">
    <!-- $x=- 0.01 \sin{\left(40 \pi t + \frac{\pi}{4} \right)}$ -->
    <g style="fill: #262626" transform="translate(110.06252 41.52)scale(0.12 -0.12)">
     <defs>
      <path id="CMMI12-78" d="M 3034 2606 
C 2829 2567 2752 2414 2752 2293 
C 2752 2139 2874 2088 2963 2088 
C 3155 2088 3290 2254 3290 2427 
C 3290 2695 2982 2816 2714 2816 
C 2323 2816 2106 2433 2048 2312 
C 1901 2816 1504 2816 1389 2816 
C 736 2816 390 1980 390 1839 
C 390 1814 416 1782 461 1782 
C 512 1782 525 1820 538 1846 
C 755 2555 1184 2689 1370 2689 
C 1658 2689 1715 2420 1715 2267 
C 1715 2127 1677 1980 1600 1673 
L 1382 798 
C 1286 415 1101 64 762 64 
C 730 64 570 64 435 147 
C 666 192 717 383 717 460 
C 717 588 621 664 499 664 
C 346 664 179 530 179 326 
C 179 57 480 -64 755 -64 
C 1062 -64 1280 179 1414 441 
C 1517 64 1837 -64 2074 -64 
C 2726 -64 3072 773 3072 913 
C 3072 945 3046 971 3008 971 
C 2950 971 2944 939 2925 888 
C 2752 326 2381 64 2093 64 
C 1869 64 1747 230 1747 492 
C 1747 632 1773 734 1875 1156 
L 2099 2024 
C 2195 2408 2413 2689 2707 2689 
C 2720 2689 2899 2689 3034 2606 
z
" transform="scale(0.015625)"/>
      <path id="CMR17-3d" d="M 4115 2017 
C 4211 2017 4307 2017 4307 2125 
C 4307 2240 4198 2240 4090 2240 
L 512 2240 
C 403 2240 294 2240 294 2125 
C 294 2017 390 2017 486 2017 
L 4115 2017 
z
M 4090 896 
C 4198 896 4307 896 4307 1011 
C 4307 1119 4211 1119 4115 1119 
L 486 1119 
C 390 1119 294 1119 294 1011 
C 294 896 403 896 512 896 
L 4090 896 
z
" transform="scale(0.015625)"/>
      <path id="CMR17-73" d="M 1978 2697 
C 1978 2813 1971 2819 1933 2819 
C 1907 2819 1901 2813 1824 2717 
C 1805 2691 1747 2626 1728 2601 
C 1523 2819 1235 2819 1126 2819 
C 416 2819 160 2447 160 2076 
C 160 1498 813 1365 998 1325 
C 1402 1243 1542 1217 1677 1101 
C 1760 1025 1901 884 1901 654 
C 1901 384 1747 38 1158 38 
C 602 38 403 460 288 1021 
C 269 1110 269 1117 218 1117 
C 166 1117 160 1110 160 983 
L 160 63 
C 160 -51 166 -58 205 -58 
C 237 -58 243 -51 275 0 
C 314 57 410 211 448 276 
C 576 103 800 -64 1158 -64 
C 1792 -64 2131 283 2131 784 
C 2131 1112 1958 1285 1875 1362 
C 1683 1561 1459 1606 1190 1657 
C 838 1735 390 1825 390 2217 
C 390 2383 480 2737 1126 2737 
C 1811 2737 1850 2094 1862 1888 
C 1869 1856 1901 1849 1920 1849 
C 1978 1849 1978 1869 1978 1978 
L 1978 2697 
z
" transform="scale(0.015625)"/>
      <path id="CMR17-69" d="M 992 3909 
C 992 4049 877 4170 730 4170 
C 589 4170 467 4056 467 3909 
C 467 3769 582 3648 730 3648 
C 870 3648 992 3763 992 3909 
z
M 243 2706 
L 243 2541 
C 602 2541 653 2502 653 2197 
L 653 427 
C 653 184 627 153 218 153 
L 218 -13 
C 371 0 646 0 806 0 
C 960 0 1222 0 1370 -13 
L 1370 153 
C 992 153 979 191 979 420 
L 979 2776 
L 243 2706 
z
" transform="scale(0.015625)"/>
      <path id="CMR17-6e" d="M 2656 1933 
C 2656 2259 2592 2790 1837 2790 
C 1331 2790 1069 2400 973 2144 
L 966 2144 
L 966 2790 
L 211 2720 
L 211 2554 
C 589 2554 646 2515 646 2208 
L 646 428 
C 646 184 621 153 211 153 
L 211 -13 
C 365 0 646 0 813 0 
C 979 0 1267 0 1421 -13 
L 1421 153 
C 1011 153 986 178 986 428 
L 986 1658 
C 986 2247 1344 2688 1792 2688 
C 2266 2688 2317 2266 2317 1958 
L 2317 428 
C 2317 184 2291 153 1882 153 
L 1882 -13 
C 2035 0 2317 0 2483 0 
C 2650 0 2938 0 3091 -13 
L 3091 153 
C 2682 153 2656 178 2656 428 
L 2656 1933 
z
" transform="scale(0.015625)"/>
      <path id="CMEX10-0" d="M 2643 -7354 
C 2643 -7328 2630 -7315 2618 -7296 
C 2323 -6982 1888 -6464 1619 -5421 
C 1472 -4838 1414 -4179 1414 -3584 
C 1414 -1901 1818 -723 2586 109 
C 2643 166 2643 179 2643 192 
C 2643 256 2592 256 2566 256 
C 2470 256 2125 -128 2042 -224 
C 1389 -998 973 -2150 973 -3578 
C 973 -4486 1133 -5773 1971 -6854 
C 2035 -6931 2451 -7418 2566 -7418 
C 2592 -7418 2643 -7418 2643 -7354 
z
" transform="scale(0.015625)"/>
      <path id="CMMI12-19" d="M 1658 2408 
L 2381 2408 
C 2208 1692 2099 1226 2099 716 
C 2099 626 2099 -64 2362 -64 
C 2496 -64 2611 57 2611 166 
C 2611 197 2611 210 2566 306 
C 2394 747 2394 1296 2394 1341 
C 2394 1379 2394 1832 2528 2408 
L 3245 2408 
C 3328 2408 3539 2408 3539 2612 
C 3539 2752 3418 2752 3302 2752 
L 1197 2752 
C 1050 2752 832 2752 538 2440 
C 371 2254 166 1916 166 1878 
C 166 1840 198 1827 237 1827 
C 282 1827 288 1846 320 1884 
C 653 2408 986 2408 1146 2408 
L 1510 2408 
C 1370 1929 1210 1373 685 256 
C 634 154 634 140 634 102 
C 634 -32 749 -64 806 -64 
C 992 -64 1043 102 1120 370 
C 1222 696 1222 709 1286 964 
L 1658 2408 
z
" transform="scale(0.015625)"/>
      <path id="CMMI12-74" d="M 1286 2566 
L 1875 2566 
C 1997 2566 2061 2566 2061 2681 
C 2061 2752 2022 2752 1894 2752 
L 1331 2752 
L 1568 3692 
C 1594 3781 1594 3794 1594 3840 
C 1594 3943 1510 4000 1427 4000 
C 1376 4000 1229 3981 1178 3775 
L 928 2752 
L 326 2752 
C 198 2752 141 2752 141 2630 
C 141 2566 186 2566 307 2566 
L 877 2566 
L 454 881 
C 403 658 384 594 384 511 
C 384 211 595 -64 954 -64 
C 1600 -64 1946 868 1946 912 
C 1946 951 1920 970 1882 970 
C 1869 970 1843 970 1830 944 
C 1824 938 1818 931 1773 829 
C 1638 511 1344 64 973 64 
C 781 64 768 224 768 364 
C 768 370 768 492 787 568 
L 1286 2566 
z
" transform="scale(0.015625)"/>
      <path id="CMR17-2b" d="M 2413 1472 
L 4109 1472 
C 4198 1472 4307 1472 4307 1580 
C 4307 1695 4205 1695 4109 1695 
L 2413 1695 
L 2413 3386 
C 2413 3475 2413 3584 2304 3584 
C 2189 3584 2189 3482 2189 3386 
L 2189 1695 
L 493 1695 
C 403 1695 294 1695 294 1587 
C 294 1472 397 1472 493 1472 
L 2189 1472 
L 2189 -218 
C 2189 -307 2189 -416 2298 -416 
C 2413 -416 2413 -314 2413 -218 
L 2413 1472 
z
" transform="scale(0.015625)"/>
      <path id="CMEX10-1" d="M 1952 -3584 
C 1952 -2675 1792 -1389 954 -307 
C 890 -230 474 256 358 256 
C 326 256 282 243 282 192 
C 282 166 294 147 320 128 
C 627 -205 1043 -723 1306 -1741 
C 1453 -2323 1510 -2982 1510 -3578 
C 1510 -4224 1453 -4877 1286 -5504 
C 1043 -6400 666 -6912 339 -7270 
C 282 -7328 282 -7341 282 -7354 
C 282 -7405 326 -7418 358 -7418 
C 454 -7418 806 -7027 883 -6938 
C 1536 -6163 1952 -5011 1952 -3584 
z
" transform="scale(0.015625)"/>
     </defs>
     <use xlink:href="#CMMI12-78" transform="scale(0.996264)"/>
     <use xlink:href="#CMR17-3d" transform="translate(83.108068 0)scale(0.996264)"/>
     <use xlink:href="#CMSY10-0" transform="translate(182.496865 0)scale(0.996264)"/>
     <use xlink:href="#CMR17-30" transform="translate(259.984333 0)scale(0.996264)"/>
     <use xlink:href="#CMMI12-3a" transform="translate(305.67481 0)scale(0.996264)"/>
     <use xlink:href="#CMR17-30" transform="translate(332.771987 0)scale(0.996264)"/>
     <use xlink:href="#CMR17-31" transform="translate(378.462464 0)scale(0.996264)"/>
     <use xlink:href="#CMR17-73" transform="translate(440.757347 0)scale(0.996264)"/>
     <use xlink:href="#CMR17-69" transform="translate(476.558684 0)scale(0.996264)"/>
     <use xlink:href="#CMR17-6e" transform="translate(501.429743 0)scale(0.996264)"/>
     <use xlink:href="#CMEX10-0" transform="translate(568.929518 80.698084)scale(0.996264)"/>
     <use xlink:href="#CMR17-34" transform="translate(614.591872 0)scale(0.996264)"/>
     <use xlink:href="#CMR17-30" transform="translate(660.282349 0)scale(0.996264)"/>
     <use xlink:href="#CMMI12-19" transform="translate(705.972826 0)scale(0.996264)"/>
     <use xlink:href="#CMMI12-74" transform="translate(764.883427 0)scale(0.996264)"/>
     <use xlink:href="#CMR17-2b" transform="translate(822.248964 0)scale(0.996264)"/>
     <use xlink:href="#CMMI12-19" transform="translate(917.298473 39.226102)scale(0.697382)"/>
     <use xlink:href="#CMR17-34" transform="translate(921.9255 -34.355253)scale(0.697382)"/>
     <use xlink:href="#CMEX10-1" transform="translate(959.731208 80.698084)scale(0.996264)"/>
     <path d="M 917.298473 22.914133 
L 958.535694 22.914133 
L 958.535694 26.899083 
L 917.298473 26.899083 
L 917.298473 22.914133 
z
"/>
    </g>
   </g>
  </g>
  <g id="axes_2">
   <g id="patch_7">
    <path d="M 315.490909 135.455294 
L 518.4 135.455294 
L 518.4 47.52 
L 315.490909 47.52 
z
" style="fill: #eaeaf2"/>
   </g>
   <g id="matplotlib.axis_3">
    <g id="xtick_7">
     <g id="line2d_20">
      <path d="M 324.71405 135.455294 
L 324.71405 47.52 
" clip-path="url(#p60bd739e2f)" style="fill: none; stroke: #ffffff; stroke-linecap: round"/>
     </g>
     <g id="line2d_21"/>
     <g id="text_11">
      <!-- $\mathdefault{0}$ -->
      <g style="fill: #262626" transform="translate(322.223382 149.373792)scale(0.1 -0.1)">
       <use xlink:href="#CMR17-30" transform="scale(0.996264)"/>
      </g>
     </g>
    </g>
    <g id="xtick_8">
     <g id="line2d_22">
      <path d="M 361.606612 135.455294 
L 361.606612 47.52 
" clip-path="url(#p60bd739e2f)" style="fill: none; stroke: #ffffff; stroke-linecap: round"/>
     </g>
     <g id="line2d_23"/>
     <g id="text_12">
      <!-- $\mathdefault{2}$ -->
      <g style="fill: #262626" transform="translate(359.115944 149.373792)scale(0.1 -0.1)">
       <use xlink:href="#CMR17-32" transform="scale(0.996264)"/>
      </g>
     </g>
    </g>
    <g id="xtick_9">
     <g id="line2d_24">
      <path d="M 398.499174 135.455294 
L 398.499174 47.52 
" clip-path="url(#p60bd739e2f)" style="fill: none; stroke: #ffffff; stroke-linecap: round"/>
     </g>
     <g id="line2d_25"/>
     <g id="text_13">
      <!-- $\mathdefault{4}$ -->
      <g style="fill: #262626" transform="translate(396.008506 149.373792)scale(0.1 -0.1)">
       <use xlink:href="#CMR17-34" transform="scale(0.996264)"/>
      </g>
     </g>
    </g>
    <g id="xtick_10">
     <g id="line2d_26">
      <path d="M 435.391736 135.455294 
L 435.391736 47.52 
" clip-path="url(#p60bd739e2f)" style="fill: none; stroke: #ffffff; stroke-linecap: round"/>
     </g>
     <g id="line2d_27"/>
     <g id="text_14">
      <!-- $\mathdefault{6}$ -->
      <g style="fill: #262626" transform="translate(432.901068 149.373792)scale(0.1 -0.1)">
       <use xlink:href="#CMR17-36" transform="scale(0.996264)"/>
      </g>
     </g>
    </g>
    <g id="xtick_11">
     <g id="line2d_28">
      <path d="M 472.284298 135.455294 
L 472.284298 47.52 
" clip-path="url(#p60bd739e2f)" style="fill: none; stroke: #ffffff; stroke-linecap: round"/>
     </g>
     <g id="line2d_29"/>
     <g id="text_15">
      <!-- $\mathdefault{8}$ -->
      <g style="fill: #262626" transform="translate(469.79363 149.373792)scale(0.1 -0.1)">
       <use xlink:href="#CMR17-38" transform="scale(0.996264)"/>
      </g>
     </g>
    </g>
    <g id="xtick_12">
     <g id="line2d_30">
      <path d="M 509.17686 135.455294 
L 509.17686 47.52 
" clip-path="url(#p60bd739e2f)" style="fill: none; stroke: #ffffff; stroke-linecap: round"/>
     </g>
     <g id="line2d_31"/>
     <g id="text_16">
      <!-- $\mathdefault{10}$ -->
      <g style="fill: #262626" transform="translate(504.195524 149.373792)scale(0.1 -0.1)">
       <use xlink:href="#CMR17-31" transform="scale(0.996264)"/>
       <use xlink:href="#CMR17-30" transform="translate(45.690477 0)scale(0.996264)"/>
      </g>
     </g>
    </g>
   </g>
   <g id="matplotlib.axis_4">
    <g id="ytick_4">
     <g id="line2d_32">
      <path d="M 315.490909 123.305268 
L 518.4 123.305268 
" clip-path="url(#p60bd739e2f)" style="fill: none; stroke: #ffffff; stroke-linecap: round"/>
     </g>
     <g id="line2d_33"/>
     <g id="text_17">
      <!-- $\mathdefault{-1}$ -->
      <g style="fill: #262626" transform="translate(295.76083 126.764517)scale(0.1 -0.1)">
       <use xlink:href="#CMSY10-0" transform="scale(0.996264)"/>
       <use xlink:href="#CMR17-31" transform="translate(77.487468 0)scale(0.996264)"/>
      </g>
     </g>
    </g>
    <g id="ytick_5">
     <g id="line2d_34">
      <path d="M 315.490909 91.492679 
L 518.4 91.492679 
" clip-path="url(#p60bd739e2f)" style="fill: none; stroke: #ffffff; stroke-linecap: round"/>
     </g>
     <g id="line2d_35"/>
     <g id="text_18">
      <!-- $\mathdefault{0}$ -->
      <g style="fill: #262626" transform="translate(303.509574 94.951928)scale(0.1 -0.1)">
       <use xlink:href="#CMR17-30" transform="scale(0.996264)"/>
      </g>
     </g>
    </g>
    <g id="ytick_6">
     <g id="line2d_36">
      <path d="M 315.490909 59.68009 
L 518.4 59.68009 
" clip-path="url(#p60bd739e2f)" style="fill: none; stroke: #ffffff; stroke-linecap: round"/>
     </g>
     <g id="line2d_37"/>
     <g id="text_19">
      <!-- $\mathdefault{1}$ -->
      <g style="fill: #262626" transform="translate(303.509574 63.139339)scale(0.1 -0.1)">
       <use xlink:href="#CMR17-31" transform="scale(0.996264)"/>
      </g>
     </g>
    </g>
   </g>
   <g id="line2d_38">
    <path d="M 324.71405 119.7606 
L 326.57731 115.954674 
L 328.440571 111.755145 
L 330.303832 107.229586 
L 332.167092 102.450813 
L 334.030353 97.495721 
L 335.893614 92.444037 
L 337.756875 87.377045 
L 339.620135 82.376275 
L 341.483396 77.522192 
L 343.346657 72.892899 
L 345.209917 68.562884 
L 347.073178 64.601817 
L 348.936439 61.073435 
L 350.799699 58.034509 
L 352.66296 55.533938 
L 354.526221 53.611957 
L 356.389482 52.299491 
L 358.252742 51.617657 
L 360.116003 51.577428 
L 361.979264 52.17945 
L 363.842524 53.414037 
L 365.705785 55.261323 
L 367.569046 57.691585 
L 369.432307 60.66572 
L 371.295567 64.135872 
L 373.158828 68.046205 
L 375.022089 72.333801 
L 376.885349 76.92967 
L 378.74861 81.759863 
L 380.611871 86.746661 
L 382.475131 91.809825 
L 384.338392 96.867885 
L 386.201653 101.839456 
L 388.064914 106.644544 
L 389.928174 111.205833 
L 391.791435 115.449929 
L 393.654696 119.308544 
L 395.517956 122.719592 
L 397.381217 125.628187 
L 399.244478 127.987529 
L 401.107739 129.759655 
L 402.970999 130.916051 
L 404.83426 131.438111 
L 406.697521 131.317433 
L 408.560781 130.55596 
L 410.424042 129.165944 
L 412.287303 127.169752 
L 414.150563 124.599502 
L 416.013824 121.49655 
L 417.877085 117.910826 
L 419.740346 113.900023 
L 421.603606 109.528678 
L 423.466867 104.867127 
L 425.330128 99.990376 
L 427.193388 94.976893 
L 429.056649 89.907349 
L 430.91991 84.863313 
L 432.783171 79.925946 
L 434.646431 75.174692 
L 436.509692 70.686001 
L 438.372953 66.532097 
L 440.236213 62.779818 
L 442.099474 59.489539 
L 443.962735 56.714203 
L 445.825995 54.498466 
L 447.689256 52.87798 
L 449.552517 51.878818 
L 451.415778 51.517059 
L 453.279038 51.798522 
L 455.142299 52.718679 
L 457.00556 54.262724 
L 458.86882 56.405813 
L 460.732081 59.113463 
L 462.595342 62.342106 
L 464.458603 66.039793 
L 466.321863 70.147027 
L 468.185124 74.59772 
L 470.048385 79.32026 
L 471.911645 84.238658 
L 473.774906 89.273776 
L 475.638167 94.344597 
L 477.501427 99.369529 
L 479.364688 104.26772 
L 481.227949 108.960356 
L 483.09121 113.371931 
L 484.95447 117.43146 
L 486.817731 121.073624 
L 488.680992 124.23982 
L 490.544252 126.879102 
L 492.407513 128.949004 
L 494.270774 130.416219 
L 496.134035 131.25714 
L 497.997295 131.458235 
L 499.860556 131.01627 
L 501.723817 129.938356 
L 503.587077 128.241836 
L 505.450338 125.954008 
L 507.313599 123.111685 
L 509.17686 119.7606 
" clip-path="url(#p60bd739e2f)" style="fill: none; stroke: #4c72b0; stroke-opacity: 0.4; stroke-width: 1.75; stroke-linecap: round"/>
   </g>
   <g id="patch_8">
    <path d="M 315.490909 135.455294 
L 315.490909 47.52 
" style="fill: none"/>
   </g>
   <g id="patch_9">
    <path d="M 518.4 135.455294 
L 518.4 47.52 
" style="fill: none"/>
   </g>
   <g id="patch_10">
    <path d="M 315.490909 135.455294 
L 518.4 135.455294 
" style="fill: none"/>
   </g>
   <g id="patch_11">
    <path d="M 315.490909 47.52 
L 518.4 47.52 
" style="fill: none"/>
   </g>
   <g id="text_20">
    <!-- $v=- 0.4 \pi \cos{\left(40 \pi t + \frac{\pi}{4} \right)}$ -->
    <g style="fill: #262626" transform="translate(352.576897 41.52)scale(0.12 -0.12)">
     <defs>
      <path id="CMMI12-76" d="M 2925 2389 
C 2925 2791 2720 2816 2669 2816 
C 2515 2816 2374 2663 2374 2535 
C 2374 2459 2419 2414 2445 2389 
C 2509 2331 2675 2159 2675 1827 
C 2675 1558 2291 64 1523 64 
C 1133 64 1056 390 1056 626 
C 1056 945 1203 1392 1376 1852 
C 1478 2114 1504 2178 1504 2305 
C 1504 2574 1312 2816 998 2816 
C 410 2816 173 1890 173 1839 
C 173 1814 198 1782 243 1782 
C 301 1782 307 1807 333 1897 
C 486 2446 736 2689 979 2689 
C 1037 2689 1146 2689 1146 2478 
C 1146 2312 1075 2127 979 1884 
C 672 1067 672 869 672 715 
C 672 575 691 313 890 134 
C 1120 -64 1440 -64 1498 -64 
C 2560 -64 2925 2024 2925 2389 
z
" transform="scale(0.015625)"/>
      <path id="CMR17-63" d="M 2234 2240 
C 2112 2240 1933 2240 1933 2017 
C 1933 1838 2080 1787 2163 1787 
C 2208 1787 2394 1807 2394 2024 
C 2394 2467 1958 2803 1466 2803 
C 787 2803 211 2178 211 1363 
C 211 516 813 -64 1466 -64 
C 2259 -64 2458 677 2458 748 
C 2458 774 2451 793 2406 793 
C 2362 793 2355 787 2330 703 
C 2163 180 1798 51 1523 51 
C 1114 51 621 427 621 1369 
C 621 2338 1094 2688 1472 2688 
C 1722 2688 2093 2573 2234 2240 
z
" transform="scale(0.015625)"/>
      <path id="CMR17-6f" d="M 2758 1356 
C 2758 2176 2163 2816 1466 2816 
C 768 2816 173 2176 173 1356 
C 173 551 768 -64 1466 -64 
C 2163 -64 2758 551 2758 1356 
z
M 1466 51 
C 1165 51 909 230 762 480 
C 602 767 582 1126 582 1408 
C 582 1677 595 2010 762 2298 
C 890 2509 1139 2714 1466 2714 
C 1754 2714 1997 2554 2150 2330 
C 2349 2029 2349 1607 2349 1408 
C 2349 1158 2336 775 2163 467 
C 1984 173 1709 51 1466 51 
z
" transform="scale(0.015625)"/>
     </defs>
     <use xlink:href="#CMMI12-76" transform="scale(0.996264)"/>
     <use xlink:href="#CMR17-3d" transform="translate(78.409182 0)scale(0.996264)"/>
     <use xlink:href="#CMSY10-0" transform="translate(177.797979 0)scale(0.996264)"/>
     <use xlink:href="#CMR17-30" transform="translate(255.285447 0)scale(0.996264)"/>
     <use xlink:href="#CMMI12-3a" transform="translate(300.975924 0)scale(0.996264)"/>
     <use xlink:href="#CMR17-34" transform="translate(328.073101 0)scale(0.996264)"/>
     <use xlink:href="#CMMI12-19" transform="translate(373.763578 0)scale(0.996264)"/>
     <use xlink:href="#CMR17-63" transform="translate(449.278584 0)scale(0.996264)"/>
     <use xlink:href="#CMR17-6f" transform="translate(489.764245 0)scale(0.996264)"/>
     <use xlink:href="#CMR17-73" transform="translate(535.454722 0)scale(0.996264)"/>
     <use xlink:href="#CMEX10-0" transform="translate(587.860465 80.698084)scale(0.996264)"/>
     <use xlink:href="#CMR17-34" transform="translate(633.522818 0)scale(0.996264)"/>
     <use xlink:href="#CMR17-30" transform="translate(679.213296 0)scale(0.996264)"/>
     <use xlink:href="#CMMI12-19" transform="translate(724.903773 0)scale(0.996264)"/>
     <use xlink:href="#CMMI12-74" transform="translate(783.814373 0)scale(0.996264)"/>
     <use xlink:href="#CMR17-2b" transform="translate(841.179911 0)scale(0.996264)"/>
     <use xlink:href="#CMMI12-19" transform="translate(936.22942 39.226102)scale(0.697382)"/>
     <use xlink:href="#CMR17-34" transform="translate(940.856447 -34.355253)scale(0.697382)"/>
     <use xlink:href="#CMEX10-1" transform="translate(978.662155 80.698084)scale(0.996264)"/>
     <path d="M 936.22942 22.914133 
L 977.466641 22.914133 
L 977.466641 26.899083 
L 936.22942 26.899083 
L 936.22942 22.914133 
z
"/>
    </g>
   </g>
  </g>
  <g id="axes_3">
   <g id="patch_12">
    <path d="M 72 346.5 
L 518.4 346.5 
L 518.4 258.564706 
L 72 258.564706 
z
" style="fill: #eaeaf2"/>
   </g>
   <g id="matplotlib.axis_5">
    <g id="xtick_13">
     <g id="line2d_39">
      <path d="M 92.290909 346.5 
L 92.290909 258.564706 
" clip-path="url(#pb5faa5439d)" style="fill: none; stroke: #ffffff; stroke-linecap: round"/>
     </g>
     <g id="line2d_40"/>
     <g id="text_21">
      <!-- $\mathdefault{0}$ -->
      <g style="fill: #262626" transform="translate(89.800241 360.418498)scale(0.1 -0.1)">
       <use xlink:href="#CMR17-30" transform="scale(0.996264)"/>
      </g>
     </g>
    </g>
    <g id="xtick_14">
     <g id="line2d_41">
      <path d="M 173.454545 346.5 
L 173.454545 258.564706 
" clip-path="url(#pb5faa5439d)" style="fill: none; stroke: #ffffff; stroke-linecap: round"/>
     </g>
     <g id="line2d_42"/>
     <g id="text_22">
      <!-- $\mathdefault{2}$ -->
      <g style="fill: #262626" transform="translate(170.963878 360.418498)scale(0.1 -0.1)">
       <use xlink:href="#CMR17-32" transform="scale(0.996264)"/>
      </g>
     </g>
    </g>
    <g id="xtick_15">
     <g id="line2d_43">
      <path d="M 254.618182 346.5 
L 254.618182 258.564706 
" clip-path="url(#pb5faa5439d)" style="fill: none; stroke: #ffffff; stroke-linecap: round"/>
     </g>
     <g id="line2d_44"/>
     <g id="text_23">
      <!-- $\mathdefault{4}$ -->
      <g style="fill: #262626" transform="translate(252.127514 360.418498)scale(0.1 -0.1)">
       <use xlink:href="#CMR17-34" transform="scale(0.996264)"/>
      </g>
     </g>
    </g>
    <g id="xtick_16">
     <g id="line2d_45">
      <path d="M 335.781818 346.5 
L 335.781818 258.564706 
" clip-path="url(#pb5faa5439d)" style="fill: none; stroke: #ffffff; stroke-linecap: round"/>
     </g>
     <g id="line2d_46"/>
     <g id="text_24">
      <!-- $\mathdefault{6}$ -->
      <g style="fill: #262626" transform="translate(333.291151 360.418498)scale(0.1 -0.1)">
       <use xlink:href="#CMR17-36" transform="scale(0.996264)"/>
      </g>
     </g>
    </g>
    <g id="xtick_17">
     <g id="line2d_47">
      <path d="M 416.945455 346.5 
L 416.945455 258.564706 
" clip-path="url(#pb5faa5439d)" style="fill: none; stroke: #ffffff; stroke-linecap: round"/>
     </g>
     <g id="line2d_48"/>
     <g id="text_25">
      <!-- $\mathdefault{8}$ -->
      <g style="fill: #262626" transform="translate(414.454787 360.418498)scale(0.1 -0.1)">
       <use xlink:href="#CMR17-38" transform="scale(0.996264)"/>
      </g>
     </g>
    </g>
    <g id="xtick_18">
     <g id="line2d_49">
      <path d="M 498.109091 346.5 
L 498.109091 258.564706 
" clip-path="url(#pb5faa5439d)" style="fill: none; stroke: #ffffff; stroke-linecap: round"/>
     </g>
     <g id="line2d_50"/>
     <g id="text_26">
      <!-- $\mathdefault{10}$ -->
      <g style="fill: #262626" transform="translate(493.127756 360.418498)scale(0.1 -0.1)">
       <use xlink:href="#CMR17-31" transform="scale(0.996264)"/>
       <use xlink:href="#CMR17-30" transform="translate(45.690477 0)scale(0.996264)"/>
      </g>
     </g>
    </g>
   </g>
   <g id="matplotlib.axis_6">
    <g id="ytick_7">
     <g id="line2d_51">
      <path d="M 72 327.842975 
L 518.4 327.842975 
" clip-path="url(#pb5faa5439d)" style="fill: none; stroke: #ffffff; stroke-linecap: round"/>
     </g>
     <g id="line2d_52"/>
     <g id="text_27">
      <!-- $\mathdefault{-100}$ -->
      <g style="fill: #262626" transform="translate(42.307251 331.302224)scale(0.1 -0.1)">
       <use xlink:href="#CMSY10-0" transform="scale(0.996264)"/>
       <use xlink:href="#CMR17-31" transform="translate(77.487468 0)scale(0.996264)"/>
       <use xlink:href="#CMR17-30" transform="translate(123.177945 0)scale(0.996264)"/>
       <use xlink:href="#CMR17-30" transform="translate(168.868422 0)scale(0.996264)"/>
      </g>
     </g>
    </g>
    <g id="ytick_8">
     <g id="line2d_53">
      <path d="M 72 302.527321 
L 518.4 302.527321 
" clip-path="url(#pb5faa5439d)" style="fill: none; stroke: #ffffff; stroke-linecap: round"/>
     </g>
     <g id="line2d_54"/>
     <g id="text_28">
      <!-- $\mathdefault{0}$ -->
      <g style="fill: #262626" transform="translate(60.018665 305.98657)scale(0.1 -0.1)">
       <use xlink:href="#CMR17-30" transform="scale(0.996264)"/>
      </g>
     </g>
    </g>
    <g id="ytick_9">
     <g id="line2d_55">
      <path d="M 72 277.211667 
L 518.4 277.211667 
" clip-path="url(#pb5faa5439d)" style="fill: none; stroke: #ffffff; stroke-linecap: round"/>
     </g>
     <g id="line2d_56"/>
     <g id="text_29">
      <!-- $\mathdefault{100}$ -->
      <g style="fill: #262626" transform="translate(50.055994 280.670917)scale(0.1 -0.1)">
       <use xlink:href="#CMR17-31" transform="scale(0.996264)"/>
       <use xlink:href="#CMR17-30" transform="translate(45.690477 0)scale(0.996264)"/>
       <use xlink:href="#CMR17-30" transform="translate(91.380954 0)scale(0.996264)"/>
      </g>
     </g>
    </g>
   </g>
   <g id="line2d_57">
    <path d="M 92.290909 274.2594 
L 96.390083 270.908315 
L 100.489256 268.065992 
L 104.58843 265.778164 
L 108.687603 264.081644 
L 112.786777 263.00373 
L 116.88595 262.561765 
L 120.985124 262.76286 
L 125.084298 263.603781 
L 129.183471 265.070996 
L 133.282645 267.140898 
L 137.381818 269.78018 
L 141.480992 272.946376 
L 145.580165 276.58854 
L 149.679339 280.648069 
L 153.778512 285.059644 
L 157.877686 289.75228 
L 161.97686 294.650471 
L 166.076033 299.675403 
L 170.175207 304.746224 
L 174.27438 309.781342 
L 178.373554 314.69974 
L 182.472727 319.42228 
L 186.571901 323.872973 
L 190.671074 327.980207 
L 194.770248 331.677894 
L 198.869421 334.906537 
L 202.968595 337.614187 
L 207.067769 339.757276 
L 211.166942 341.301321 
L 215.266116 342.221478 
L 219.365289 342.502941 
L 223.464463 342.141182 
L 227.563636 341.14202 
L 231.66281 339.521534 
L 235.761983 337.305797 
L 239.861157 334.530461 
L 243.960331 331.240182 
L 248.059504 327.487903 
L 252.158678 323.333999 
L 256.257851 318.845308 
L 260.357025 314.094054 
L 264.456198 309.156687 
L 268.555372 304.112651 
L 272.654545 299.043107 
L 276.753719 294.029624 
L 280.852893 289.152873 
L 284.952066 284.491322 
L 289.05124 280.119977 
L 293.150413 276.109174 
L 297.249587 272.52345 
L 301.34876 269.420498 
L 305.447934 266.850248 
L 309.547107 264.854056 
L 313.646281 263.46404 
L 317.745455 262.702567 
L 321.844628 262.581889 
L 325.943802 263.103949 
L 330.042975 264.260345 
L 334.142149 266.032471 
L 338.241322 268.391813 
L 342.340496 271.300408 
L 346.439669 274.711456 
L 350.538843 278.570071 
L 354.638017 282.814167 
L 358.73719 287.375456 
L 362.836364 292.180544 
L 366.935537 297.152115 
L 371.034711 302.210175 
L 375.133884 307.273339 
L 379.233058 312.260137 
L 383.332231 317.09033 
L 387.431405 321.686199 
L 391.530579 325.973795 
L 395.629752 329.884128 
L 399.728926 333.35428 
L 403.828099 336.328415 
L 407.927273 338.758677 
L 412.026446 340.605963 
L 416.12562 341.84055 
L 420.224793 342.442572 
L 424.323967 342.402343 
L 428.42314 341.720509 
L 432.522314 340.408043 
L 436.621488 338.486062 
L 440.720661 335.985491 
L 444.819835 332.946565 
L 448.919008 329.418183 
L 453.018182 325.457116 
L 457.117355 321.127101 
L 461.216529 316.497808 
L 465.315702 311.643725 
L 469.414876 306.642955 
L 473.51405 301.575963 
L 477.613223 296.524279 
L 481.712397 291.569187 
L 485.81157 286.790414 
L 489.910744 282.264855 
L 494.009917 278.065326 
L 498.109091 274.2594 
" clip-path="url(#pb5faa5439d)" style="fill: none; stroke: #4c72b0; stroke-opacity: 0.4; stroke-width: 1.75; stroke-linecap: round"/>
   </g>
   <g id="patch_13">
    <path d="M 72 346.5 
L 72 258.564706 
" style="fill: none"/>
   </g>
   <g id="patch_14">
    <path d="M 518.4 346.5 
L 518.4 258.564706 
" style="fill: none"/>
   </g>
   <g id="patch_15">
    <path d="M 72 346.5 
L 518.4 346.5 
" style="fill: none"/>
   </g>
   <g id="patch_16">
    <path d="M 72 258.564706 
L 518.4 258.564706 
" style="fill: none"/>
   </g>
   <g id="text_30">
    <!-- $a=16.0 \pi^{2} \sin{\left(40 \pi t + \frac{\pi}{4} \right)}$ -->
    <g style="fill: #262626" transform="translate(230.81 252.564706)scale(0.12 -0.12)">
     <defs>
      <path id="CMMI12-61" d="M 1926 760 
C 1894 651 1894 639 1805 517 
C 1664 338 1382 64 1082 64 
C 819 64 672 300 672 677 
C 672 1028 870 1743 992 2012 
C 1210 2459 1510 2689 1760 2689 
C 2182 2689 2266 2165 2266 2114 
C 2266 2108 2246 2024 2240 2012 
L 1926 760 
z
M 2336 2395 
C 2266 2561 2093 2816 1760 2816 
C 1037 2816 256 1884 256 939 
C 256 307 627 -64 1062 -64 
C 1414 -64 1715 211 1894 422 
C 1958 45 2259 -64 2451 -64 
C 2643 -64 2797 51 2912 281 
C 3014 498 3104 888 3104 913 
C 3104 945 3078 971 3040 971 
C 2982 971 2976 939 2950 843 
C 2854 466 2733 64 2470 64 
C 2285 64 2272 230 2272 358 
C 2272 505 2291 575 2349 824 
C 2394 984 2426 1124 2477 1309 
C 2714 2267 2771 2497 2771 2535 
C 2771 2625 2701 2695 2605 2695 
C 2400 2695 2349 2472 2336 2395 
z
" transform="scale(0.015625)"/>
     </defs>
     <use xlink:href="#CMMI12-61" transform="scale(0.996264)"/>
     <use xlink:href="#CMR17-3d" transform="translate(78.881866 0)scale(0.996264)"/>
     <use xlink:href="#CMR17-31" transform="translate(178.270663 0)scale(0.996264)"/>
     <use xlink:href="#CMR17-36" transform="translate(223.961141 0)scale(0.996264)"/>
     <use xlink:href="#CMMI12-3a" transform="translate(269.651618 0)scale(0.996264)"/>
     <use xlink:href="#CMR17-30" transform="translate(296.748795 0)scale(0.996264)"/>
     <use xlink:href="#CMMI12-19" transform="translate(342.439272 0)scale(0.996264)"/>
     <use xlink:href="#CMR17-32" transform="translate(401.349873 36.153639)scale(0.697382)"/>
     <use xlink:href="#CMR17-73" transform="translate(450.435592 0)scale(0.996264)"/>
     <use xlink:href="#CMR17-69" transform="translate(486.23693 0)scale(0.996264)"/>
     <use xlink:href="#CMR17-6e" transform="translate(511.107988 0)scale(0.996264)"/>
     <use xlink:href="#CMEX10-0" transform="translate(578.607763 80.698084)scale(0.996264)"/>
     <use xlink:href="#CMR17-34" transform="translate(624.270117 0)scale(0.996264)"/>
     <use xlink:href="#CMR17-30" transform="translate(669.960594 0)scale(0.996264)"/>
     <use xlink:href="#CMMI12-19" transform="translate(715.651071 0)scale(0.996264)"/>
     <use xlink:href="#CMMI12-74" transform="translate(774.561672 0)scale(0.996264)"/>
     <use xlink:href="#CMR17-2b" transform="translate(831.927209 0)scale(0.996264)"/>
     <use xlink:href="#CMMI12-19" transform="translate(926.976718 39.226102)scale(0.697382)"/>
     <use xlink:href="#CMR17-34" transform="translate(931.603745 -34.355253)scale(0.697382)"/>
     <use xlink:href="#CMEX10-1" transform="translate(969.409453 80.698084)scale(0.996264)"/>
     <path d="M 926.976718 22.914133 
L 968.21394 22.914133 
L 968.21394 26.899083 
L 926.976718 26.899083 
L 926.976718 22.914133 
z
"/>
    </g>
   </g>
  </g>
 </g>
 <defs>
  <clipPath id="paaccda7c62">
   <rect x="72" y="47.52" width="202.909091" height="87.935294"/>
  </clipPath>
  <clipPath id="p60bd739e2f">
   <rect x="315.490909" y="47.52" width="202.909091" height="87.935294"/>
  </clipPath>
  <clipPath id="pb5faa5439d">
   <rect x="72" y="258.564706" width="446.4" height="87.935294"/>
  </clipPath>
 </defs>
</svg>
